<?xml version="1.0" encoding="iso-8859-1"?>
<!-- Generator: Adobe Illustrator 19.0.0, SVG Export Plug-In . SVG Version: 6.00 Build 0)  -->
<svg xmlns="http://www.w3.org/2000/svg" xmlns:xlink="http://www.w3.org/1999/xlink" version="1.1" id="Layer_1" x="0px" y="0px" viewBox="0 0 511.998 511.998" style="enable-background:new 0 0 511.998 511.998;" xml:space="preserve">
<polygon style="fill:#FFD05C;" points="444.305,116.855 456.779,110.02 422.515,71.395 414.275,82.738 "/>
<g style="opacity:0.1;">
	<polygon points="423.62,91.697 431.231,81.219 422.515,71.395 414.275,82.738 444.305,116.855 445.289,116.317  "/>
</g>
<polygon style="fill:#FFAC61;" points="494.619,89.294 447.995,36.328 429.634,61.6 467.419,104.194 "/>
<g style="opacity:0.1;">
	<polygon points="438.714,71.095 456.748,46.272 447.995,36.328 429.634,61.6 467.419,104.194 467.86,103.952  "/>
</g>
<path style="fill:#2B4B5B;" d="M143.842,299.145c-3.877,3.412-7.002,7.463-9.291,12.039l-4.965,9.932l37.615-33.302l-10.496,3.756  C151.944,293.272,147.617,295.821,143.842,299.145z"/>
<path style="fill:#ABB2BA;" d="M217.874,309.66l1.137,2.813l215.079-189.325l-10.469-11.895L213.256,297.498l-1.408,1.247  l1.049,1.561C214.889,303.27,216.564,306.418,217.874,309.66z"/>
<path style="fill:#FFD05C;" d="M330.208,238.596l-0.962-3.215c-0.735-2.456-2.669-4.37-5.135-5.077  c-2.464-0.708-5.122-0.11-7.045,1.586l-99.742,87.799l-0.764,0.672c-1.694,1.49-2.631,3.661-2.552,5.916l0.035,1.018  c0.053,1.487,0.031,2.982-0.061,4.446c-0.747,11.728-6.018,22.463-14.839,30.229c-8.038,7.074-18.354,10.971-29.052,10.971  c-2.322,0-4.668-0.187-6.966-0.556l-1.005-0.161c-2.227-0.356-4.496,0.3-6.183,1.795l-20.702,18.328  c-3.107,2.75-3.401,7.494-0.66,10.606l5.439,6.18l-15.972,14.06l-54.252-61.635l15.971-14.059l6.131,6.964  c1.321,1.501,3.185,2.414,5.18,2.538c2.003,0.118,3.959-0.551,5.456-1.876l21.045-18.633c1.644-1.456,2.57-3.558,2.535-5.754  l-0.016-0.992c-0.023-1.334,0.001-2.51,0.07-3.599c0.747-11.727,6.017-22.463,14.838-30.228c8.04-7.076,18.358-10.972,29.054-10.972  c1.791,0,3.692,0.128,5.648,0.382l0.965,0.125c2.148,0.275,4.313-0.384,5.937-1.816l101.416-89.27  c1.929-1.697,2.857-4.261,2.464-6.8c-0.392-2.538-2.054-4.701-4.407-5.736l-3.083-1.356c-11.756-5.172-24.258-7.793-37.164-7.793  c-22.387,0-43.978,8.155-60.784,22.95c-0.832,0.73-1.693,1.518-2.708,2.485l-0.879,0.86c-0.467,0.457-0.974,0.958-1.439,1.435  c-0.421,0.427-0.807,0.835-1.172,1.224c-0.387,0.41-0.758,0.812-1.127,1.216c-0.445,0.488-0.89,0.983-1.366,1.532l-0.683,0.798  c-2.483,2.92-4.812,6.034-6.892,9.215l-0.147,0.221c-0.782,1.198-1.49,2.341-2.166,3.495c-4.547,6.586-17.618,21.971-41.434,23.864  l-0.102,0.009c-4.843,0.311-9.689,0.913-14.404,1.788l-0.031,0.005c-0.053,0.009-0.104,0.018-0.157,0.027  c-3.128,0.583-6.294,1.304-9.426,2.146l-0.343,0.094c-3.098,0.844-6.168,1.812-9.146,2.884l-0.434,0.157  c-1.351,0.493-2.711,1.016-4,1.537l-0.54,0.215c-1.429,0.584-2.913,1.224-4.453,1.925l-0.171,0.078  c-1.278,0.589-2.591,1.222-3.907,1.886l-0.871,0.44c-2.734,1.402-5.447,2.926-8.123,4.564l-0.854,0.532  c-1.078,0.673-2.145,1.366-3.191,2.065l-0.82,0.546c-1.233,0.839-2.509,1.741-3.872,2.746l-0.662,0.501  c-0.987,0.741-1.991,1.517-3.02,2.337l-0.975,0.785c-1.395,1.139-2.535,2.099-3.584,3.024C-2.75,316.898-7.69,394.46,36.942,445.164  c23.248,26.411,56.781,41.561,92.001,41.563h0.005c29.783,0,58.512-10.851,80.895-30.556c1.058-0.931,2.16-1.943,3.515-3.229  l0.897-0.865c0.883-0.858,1.781-1.758,2.652-2.651l0.689-0.707c1.074-1.126,2.124-2.267,3.188-3.471l0.513-0.597  c0.87-0.997,1.694-1.969,2.49-2.944l0.716-0.876c1.912-2.381,3.765-4.876,5.52-7.439l0.554-0.813  c0.851-1.268,1.599-2.421,2.283-3.52l0.135-0.209c0.026-0.041,0.053-0.082,0.077-0.124c0.799-1.289,1.609-2.658,2.426-4.1  l0.229-0.408c0.682-1.216,1.373-2.502,2.061-3.831l0.224-0.434c1.437-2.814,2.783-5.732,3.986-8.633l0.158-0.377  c1.243-3.03,2.366-6.101,3.336-9.118c1.492-4.632,2.722-9.431,3.637-14.168l0.023-0.108c4.87-23.385,21.813-34.414,28.944-38.099  c1.232-0.527,2.481-1.096,3.869-1.768l0.104-0.052c3.437-1.669,6.812-3.581,10.041-5.686l0.945-0.618  c0.502-0.335,1.052-0.716,1.604-1.102c0.432-0.303,0.875-0.62,1.314-0.94c0.453-0.329,0.901-0.657,1.408-1.038  c0.524-0.4,1.083-0.832,1.606-1.248l1.046-0.83c0.917-0.746,1.812-1.5,2.697-2.278C330.058,309.833,340.589,273.319,330.208,238.596  z"/>
<g style="opacity:0.1;">
	<path d="M61.391,287.782c1.049-0.924,2.189-1.886,3.584-3.024l0.975-0.785c1.029-0.82,2.033-1.595,3.02-2.337l0.662-0.501   c1.363-1.004,2.638-1.906,3.872-2.746l0.82-0.546c1.046-0.699,2.112-1.392,3.191-2.065l0.854-0.532   c2.675-1.638,5.389-3.163,8.123-4.564l0.871-0.44c1.316-0.663,2.627-1.296,3.907-1.886l0.171-0.078   c1.539-0.701,3.024-1.342,4.453-1.925l0.54-0.215c1.288-0.52,2.649-1.044,4-1.537l0.434-0.157c2.978-1.071,6.048-2.039,9.146-2.884   l0.343-0.094c3.13-0.842,6.296-1.563,9.426-2.146c0.053-0.01,0.104-0.019,0.157-0.027l0.031-0.005   c4.716-0.875,9.562-1.477,14.404-1.788l0.102-0.009c23.816-1.893,36.887-17.277,41.434-23.864c0.676-1.153,1.385-2.297,2.166-3.495   l0.147-0.221c2.081-3.181,4.41-6.295,6.892-9.215l0.683-0.798c0.476-0.549,0.921-1.044,1.366-1.532   c0.369-0.404,0.74-0.806,1.127-1.216c0.364-0.388,0.75-0.797,1.172-1.224c0.465-0.477,0.973-0.978,1.439-1.435l0.879-0.86   c1.015-0.966,1.876-1.755,2.708-2.484c16.806-14.795,38.398-22.95,60.784-22.95c10.264,0,20.271,1.664,29.855,4.945   c1.159-1.59,1.672-3.588,1.362-5.577c-0.392-2.538-2.054-4.701-4.407-5.736l-3.083-1.356c-11.756-5.172-24.258-7.793-37.163-7.793   c-22.387,0-43.978,8.155-60.784,22.95c-0.832,0.73-1.693,1.518-2.708,2.485l-0.879,0.86c-0.467,0.457-0.974,0.958-1.439,1.435   c-0.421,0.427-0.807,0.835-1.172,1.224c-0.387,0.41-0.758,0.812-1.127,1.216c-0.445,0.488-0.89,0.983-1.366,1.532l-0.683,0.798   c-2.483,2.92-4.812,6.034-6.892,9.215l-0.147,0.221c-0.782,1.198-1.49,2.341-2.166,3.495c-4.547,6.586-17.618,21.971-41.434,23.864   l-0.102,0.009c-4.843,0.311-9.689,0.913-14.404,1.788l-0.031,0.005c-0.053,0.009-0.104,0.018-0.157,0.027   c-3.128,0.583-6.294,1.304-9.426,2.146l-0.343,0.094c-3.098,0.844-6.168,1.812-9.146,2.884l-0.434,0.157   c-1.351,0.493-2.711,1.016-4,1.537l-0.54,0.215c-1.429,0.584-2.913,1.224-4.453,1.925l-0.171,0.078   c-1.278,0.589-2.591,1.222-3.907,1.886l-0.871,0.44c-2.734,1.402-5.447,2.926-8.123,4.564l-0.854,0.532   c-1.078,0.673-2.145,1.366-3.191,2.065l-0.82,0.546c-1.233,0.838-2.509,1.741-3.872,2.746l-0.662,0.501   c-0.987,0.741-1.991,1.517-3.02,2.337l-0.975,0.785c-1.395,1.139-2.535,2.099-3.584,3.024   C-2.75,316.898-7.69,394.46,36.942,445.164c2.05,2.329,4.185,4.567,6.389,6.718C6.456,401.356,13.537,329.904,61.391,287.782z"/>
</g>
<g>
	<path style="fill:#2B4B5B;" d="M196.301,358.739c4.436-3.905,7.865-8.601,10.191-13.957l3.86-8.892l-38.26,33.872l9.334-2.787   C186.971,365.32,191.976,362.548,196.301,358.739z"/>
	<path style="fill:#2B4B5B;" d="M157.738,366.679l50.531-44.738l-0.177-1.159c-0.631-4.124-1.949-8.066-3.917-11.716l-1.287-2.388   l-58.979,52.216l2.078,1.587c3.203,2.445,6.753,4.384,10.55,5.762L157.738,366.679z"/>
	<path style="fill:#2B4B5B;" d="M182.959,291.458l-1.518-0.458l-50.507,44.714l0.247,1.217c0.75,3.684,2.023,7.233,3.781,10.546   l1.279,2.413l58.713-51.981l-2.249-1.561c-2.556-1.774-5.292-3.239-8.13-4.353l-0.355-0.134l-0.706,2.031l0.56-2.082   C183.708,291.68,183.333,291.568,182.959,291.458z"/>
</g>
<path style="fill:#ABB2BA;" d="M415.808,102.378l-9.071-10.304l-215.55,189.738l2.806,1.442c2.98,1.531,5.843,3.406,8.504,5.572  l1.415,1.151l210.29-186.178L415.808,102.378z"/>
<g>
	<path style="fill:#FFD05C;" d="M145.137,374.004c-3.087-1.708-6.005-3.739-8.671-6.036l-1.423-1.225l-12.542,11.104l9.909,11.257   l15.39-13.625L145.137,374.004z"/>
	<path style="fill:#FFD05C;" d="M126.37,356.227c-1.738-2.769-3.212-5.705-4.38-8.722l-1.116-2.884l-15.523,13.744l9.338,10.607   l12.65-11.2L126.37,356.227z"/>
</g>
<rect x="68.141" y="379.027" transform="matrix(0.6607 0.7506 -0.7506 0.6607 324.8547 52.0091)" style="fill:#FFAC61;" width="73.505" height="12.678"/>
<path d="M509.988,85.604l-56.383-64.053c-1.619-1.839-3.992-2.838-6.428-2.727c-2.445,0.114-4.706,1.334-6.146,3.315l-25.414,34.978  c-0.016,0.02-0.03,0.042-0.045,0.062l-15.385,21.174c-0.381,0.524-0.663,1.087-0.902,1.664l-111.086,97.783  c-16.45-8.732-35.422-12.732-54.073-11.269c-21.383,1.671-41.216,10.063-57.345,24.261c-0.9,0.788-1.812,1.625-2.795,2.561  c-0.21,0.201-0.416,0.402-0.621,0.605l-0.382,0.374c-0.538,0.527-1.075,1.058-1.578,1.573c-0.432,0.44-0.857,0.887-1.268,1.324  c-0.397,0.422-0.79,0.846-1.185,1.278c-0.481,0.528-0.96,1.059-1.414,1.583l-0.763,0.892c-2.452,2.883-4.754,5.927-6.85,9.063  c-0.32,0.395-0.605,0.825-0.848,1.287c-0.737,1.137-1.408,2.22-2.041,3.295c-4.143,5.934-15.701,19.301-36.555,20.919h-0.001  c-5.089,0.329-10.204,0.965-15.205,1.893c-0.04,0.008-0.081,0.015-0.12,0.023c-3.294,0.614-6.621,1.371-9.843,2.238l-0.442,0.119  c-3.26,0.889-6.49,1.907-9.558,3.012l-0.525,0.191c-1.402,0.51-2.836,1.059-4.301,1.651l-0.464,0.186  c-1.551,0.634-3.107,1.305-4.622,1.995c-4.052,1.847-5.839,6.628-3.994,10.681c1.847,4.052,6.626,5.839,10.681,3.994  c1.321-0.603,2.679-1.188,4.02-1.737l0.327-0.13c0.016-0.006,0.117-0.046,0.133-0.053c1.249-0.506,2.504-0.987,3.741-1.437  l0.422-0.155c2.709-0.974,5.529-1.863,8.386-2.642l0.336-0.091c2.865-0.771,5.778-1.434,8.661-1.972  c0.016-0.002,0.03-0.005,0.046-0.009c4.421-0.822,8.947-1.385,13.452-1.673h-0.001c0.071-0.004,0.142-0.01,0.213-0.016  c27.985-2.211,43.344-20.364,48.651-28.072c0.112-0.162,0.218-0.331,0.318-0.502c0.608-1.041,1.265-2.097,2.006-3.234  c0.003-0.004,0.005-0.008,0.008-0.012c0.025-0.037,0.049-0.073,0.074-0.111c1.87-2.859,3.948-5.637,6.163-8.241l0.663-0.776  c0.383-0.442,0.774-0.874,1.164-1.303c0.329-0.36,0.659-0.719,1.005-1.085c0.336-0.358,0.675-0.717,1.043-1.091  c0.44-0.45,0.891-0.895,1.306-1.301l0.883-0.863c0.751-0.716,1.517-1.421,2.317-2.123c24.512-21.58,58.56-26.526,87.695-13.593  l-98.172,86.416c-2.273-0.295-4.571-0.462-6.89-0.462c-13.053,0-25.641,4.754-35.447,13.385  c-10.762,9.473-17.189,22.568-18.101,36.877c-0.094,1.464-0.112,2.92-0.089,4.37l-18.692,16.548l-5.771-6.555  c-1.413-1.605-3.406-2.583-5.539-2.719c-2.139-0.147-4.234,0.581-5.839,1.993l-18.392,16.19c-3.342,2.942-3.667,8.038-0.726,11.379  l56.382,64.054c1.593,1.811,3.819,2.736,6.055,2.736c1.892,0,3.791-0.662,5.323-2.01l18.393-16.19  c1.605-1.413,2.583-3.406,2.719-5.539c0.137-2.134-0.58-4.233-1.993-5.839l-5.089-5.781l18.334-16.232  c2.793,0.448,5.635,0.679,8.504,0.679c13.053,0,25.641-4.754,35.445-13.385c10.762-9.473,17.19-22.568,18.102-36.877  c0.115-1.809,0.139-3.611,0.076-5.399l97.226-85.585c9.13,30.538-0.094,63.685-24.605,85.261c-0.793,0.698-1.597,1.373-2.42,2.042  c-0.16,0.131-0.324,0.258-0.485,0.385l-0.435,0.343c-0.501,0.398-1.006,0.79-1.48,1.151c-0.407,0.306-0.819,0.606-1.233,0.909  c-0.396,0.288-0.792,0.571-1.18,0.843c-0.485,0.34-0.974,0.679-1.417,0.976l-0.868,0.564c-2.881,1.879-5.901,3.59-8.977,5.084  c-0.023,0.011-0.043,0.021-0.064,0.031s-0.042,0.02-0.063,0.03c-1.217,0.589-2.353,1.106-3.473,1.586  c-0.18,0.075-0.356,0.159-0.529,0.248c-8.326,4.288-28.302,17.231-34.03,44.754c-0.011,0.049-0.021,0.099-0.03,0.148  c-0.861,4.452-1.993,8.869-3.366,13.131c-0.004,0.014-0.009,0.027-0.013,0.041c-0.895,2.782-1.923,5.59-3.066,8.371l-0.127,0.303  c-1.126,2.713-2.365,5.399-3.683,7.981l-0.206,0.401c-0.623,1.206-1.262,2.392-1.902,3.532l-0.23,0.412  c-0.733,1.294-1.487,2.566-2.209,3.732c-0.016,0.024-0.084,0.128-0.099,0.153c-0.021,0.031-0.041,0.063-0.061,0.096  c-0.65,1.047-1.364,2.144-2.144,3.305l-0.521,0.766c-1.594,2.328-3.307,4.636-5.063,6.824l-0.66,0.807  c-0.74,0.905-1.497,1.797-2.294,2.711l-0.554,0.642c-0.902,1.019-1.872,2.074-2.858,3.109l-0.611,0.627  c-0.817,0.839-1.649,1.673-2.469,2.467l-0.874,0.845c-1.185,1.123-2.227,2.082-3.192,2.93  c-22.624,19.913-51.649,29.834-81.723,27.911c-30.077-1.915-57.608-15.429-77.521-38.05C3.097,392.071,7.647,320.635,54.346,279.527  c0.961-0.845,2.013-1.733,3.309-2.791l0.957-0.77c3.467-2.794,4.013-7.869,1.219-11.337c-2.793-3.467-7.868-4.013-11.337-1.219  l-1.029,0.829c-1.459,1.19-2.658,2.203-3.772,3.183C-9.681,314.406-14.882,396.052,32.1,449.425  c22.76,25.857,54.225,41.301,88.601,43.49c2.8,0.178,5.593,0.268,8.375,0.268c31.356,0,61.278-11.263,85.026-32.167  c1.116-0.983,2.307-2.075,3.649-3.348l0.971-0.936c0.956-0.928,1.897-1.868,2.85-2.849l0.67-0.688  c1.147-1.203,2.253-2.405,3.314-3.604l0.631-0.732c0.883-1.012,1.75-2.035,2.617-3.093l0.706-0.866  c2.038-2.538,3.997-5.177,5.804-7.817l0.58-0.852c0.919-1.367,1.733-2.622,2.433-3.745l0.198-0.309  c0.865-1.394,1.728-2.851,2.583-4.363l0.247-0.443c0.726-1.293,1.452-2.643,2.176-4.046l0.225-0.435  c1.51-2.958,2.929-6.032,4.194-9.08l0.181-0.433c1.295-3.154,2.471-6.369,3.471-9.475c0.012-0.037,0.024-0.074,0.037-0.114  c1.56-4.848,2.848-9.868,3.829-14.924c4.262-20.461,18.979-30.222,25.385-33.574c1.145-0.493,2.301-1.019,3.51-1.599  c0.436-0.167,0.852-0.371,1.245-0.606c3.432-1.703,6.799-3.628,10.021-5.73l0.975-0.636c0.586-0.391,1.165-0.793,1.755-1.206  c0.475-0.334,0.946-0.67,1.413-1.009c0.482-0.35,0.963-0.703,1.471-1.086c0.597-0.454,1.189-0.916,1.793-1.394l0.341-0.269  c0.249-0.197,0.499-0.391,0.735-0.585c0.966-0.787,1.926-1.594,2.876-2.43c16.141-14.208,26.982-32.816,31.351-53.815  c3.812-18.319,2.254-37.643-4.318-55.065l111.055-97.759c0.614-0.163,1.217-0.397,1.794-0.713l60.941-33.383  c2.147-1.177,3.644-3.265,4.067-5.676C512.302,89.915,511.606,87.441,509.988,85.604z M444.781,114.142l-10.49-11.916  l-17.267-19.618l5.657-7.786l30.7,34.607L444.781,114.142z M157.27,364.221c-3.574-1.298-6.941-3.131-9.979-5.45l54.991-48.685  c1.848,3.426,3.091,7.131,3.686,11.022L157.27,364.221z M181.966,293.405c0.468,0.142,0.941,0.271,1.399,0.432  c0.104,0.04,0.211,0.073,0.314,0.113c0.035,0.013,0.068,0.029,0.103,0.042c2.714,1.064,5.294,2.452,7.697,4.12l-54.62,48.357  c-1.665-3.14-2.863-6.491-3.571-9.967L181.966,293.405z M203.853,287.157c-2.753-2.24-5.726-4.198-8.877-5.816l99.568-87.644  c0.001-0.001,0.001-0.001,0.002-0.002L406.544,95.11l6.233,7.081L203.853,287.157z M145.262,300.758  c3.598-3.167,7.733-5.579,12.167-7.165l-20.955,18.552C138.611,307.874,141.569,304.009,145.262,300.758z M119.986,348.28  c1.22,3.155,2.748,6.195,4.563,9.089l-9.671,8.562l-6.495-7.379L119.986,348.28z M124.621,414.086l-45.729-51.951l6.29-5.535  l45.729,51.951L124.621,414.086z M132.599,386.063l-7.067-8.029l9.531-8.438c2.8,2.411,5.829,4.514,9.034,6.288L132.599,386.063z   M194.88,357.125c-4.108,3.616-8.915,6.251-14.068,7.789l23.709-20.99C202.352,348.92,199.091,353.42,194.88,357.125z   M319.067,221.536c-0.003,0.002-0.006,0.004-0.01,0.008l-99.189,87.312c-1.375-3.402-3.113-6.664-5.186-9.748l208.75-184.815  l2.956,3.357l4.669,5.305L319.067,221.536z M467.888,101.485l-35.501-40.02l15.768-21.701l43.074,48.935L467.888,101.485z"/>
<g style="opacity:0.1;">
	<polygon points="89.876,365.878 89.996,365.773 93.078,363.06 93.086,363.069 93.456,362.745 85.374,353.565 75.857,361.941    83.929,371.112  "/>
</g>
<g>
</g>
<g>
</g>
<g>
</g>
<g>
</g>
<g>
</g>
<g>
</g>
<g>
</g>
<g>
</g>
<g>
</g>
<g>
</g>
<g>
</g>
<g>
</g>
<g>
</g>
<g>
</g>
<g>
</g>
</svg>
