<svg id="Layer_1" data-name="Layer 1" xmlns="http://www.w3.org/2000/svg" viewBox="0 0 512 512"><defs><style>.cls-1{fill:#ffefd6;}.cls-2{fill:#3d3c3c;}.cls-3{fill:#f4b382;}.cls-4{fill:#b3233b;}.cls-5{fill:#e2a379;}.cls-6{fill:#d6876b;}.cls-7{fill:#cc785e;}.cls-8{fill:#4c230c;}.cls-9{fill:#602f0f;}.cls-10{fill:#282828;}</style></defs><title>warrior pose knee up</title><path class="cls-1" d="M7.92,256C7.92,119,119,7.92,256,7.92S504.08,119,504.08,256,393,504.08,256,504.08,7.92,393,7.92,256Z"/><path class="cls-2" d="M228.33,242.94l1.19,20.3s16.9,6.66,24.15,6.66,28.82-6.66,28.82-6.66l1.19-20.3Z"/><path class="cls-3" d="M93.88,142.14c0-3.75,15.85-1.71,20.61-2.67l5.65,2.63c34.68-2.07,50.93.5,50.93.5,20.69-2.17,57.9-.89,65.72.51,4.72.75.35,21.44-5.49,21.45-9-.86-53.28-8.35-60.17-9.11-.95-.1-51-4.83-51-4.83a19.62,19.62,0,0,0-5.36,1.18c-4.59,1.57-11.51,1.16-15.24-.62A10.44,10.44,0,0,1,93.88,142.14Z"/><path class="cls-3" d="M109.56,141.81s-5,.39-5.48-2.25c-.4-2.21-.31-3,10.33.7C114.4,140.26,114.22,141.76,109.56,141.81Z"/><path class="cls-3" d="M418.12,142.14c0-3.75-15.85-1.71-20.61-2.67l-5.65,2.63c-34.68-2.07-50.93.5-50.93.5-20.69-2.17-57.9-.89-65.72.51-4.72.75-.35,21.44,5.49,21.45,9-.86,53.28-8.35,60.17-9.11.95-.1,51-4.83,51-4.83a19.62,19.62,0,0,1,5.36,1.18c4.59,1.57,11.51,1.16,15.24-.62A10.44,10.44,0,0,0,418.12,142.14Z"/><path class="cls-3" d="M402.44,141.81s5,.39,5.48-2.25c.4-2.21.31-3-10.33.7C397.6,140.26,397.78,141.76,402.44,141.81Z"/><path class="cls-4" d="M282.49,175.67c1.88-11.47-7.51-32.44-7.51-32.44a109.29,109.29,0,0,0-12.72-.79H249.71a108.83,108.83,0,0,0-12.68.78s-9.39,21-7.51,32.44c1.75,10.71,4.8,26.39-1.19,67.27h55.35C277.69,202.06,280.74,186.38,282.49,175.67Z"/><path class="cls-5" d="M264.45,130.94H247.53c2.64,8,.21,11.59.21,11.59s.51,5.22,8.25,5.22,8.23-5.22,8.23-5.22S261.81,138.9,264.45,130.94Z"/><path class="cls-3" d="M273.33,107.69c0-20.1-7.76-24.7-17.34-24.7s-17.34,4.6-17.34,24.7a39.79,39.79,0,0,0,3,16.24c4,9,10.94,12.21,14.3,12.21s10.29-3.16,14.3-12.21A39.79,39.79,0,0,0,273.33,107.69Z"/><path class="cls-6" d="M260.88,127.89a11.06,11.06,0,0,1-9.79,0,5,5,0,0,1,2.6-2.24,7.42,7.42,0,0,1,2.3.54,7.17,7.17,0,0,1,2.27-.54C259.32,125.8,260.88,127.89,260.88,127.89Z"/><path class="cls-7" d="M260.88,127.89a7,7,0,0,1-9.79,0s.51-.61,3.37-.79c.48,0,1.11.35,1.53.35s.91-.39,1.33-.36C260.29,127.25,260.88,127.89,260.88,127.89Z"/><ellipse class="cls-8" cx="255.99" cy="83.97" rx="9.13" ry="6.23"/><path class="cls-9" d="M274,108.54C274,88.45,268.46,83,256,83s-18,5.45-18,25.55c0,0,26.67-5.76,26.67-13.08C264.69,102.78,274,108.54,274,108.54Z"/><path class="cls-3" d="M237,114.77c.93,5.47,2.09,5.73,3.76,5.44L239,108.3C237.31,108.58,236,109.3,237,114.77Z"/><path class="cls-3" d="M273,108.3l-1.77,11.91c1.66.28,2.82,0,3.76-5.44S274.7,108.58,273,108.3Z"/><path class="cls-9" d="M240,109.41a8,8,0,0,1-.09-1.55,6.49,6.49,0,0,1,.11-1l-2,.76c0,.31,0,.63,0,.94l.61-.21-.05,0a11,11,0,0,1,1,2.29S240.34,111.24,240,109.41Z"/><path class="cls-9" d="M272,107.86a8.32,8.32,0,0,1-.09,1.55c-.29,1.82.51,1.23.51,1.23a11.07,11.07,0,0,1,1-2.29l.55.18c0-.32,0-.63,0-.94l-2-.76a6.53,6.53,0,0,1,.11,1"/><path class="cls-3" d="M276.83,434.08c-4-1-13.48-8.66-14.83-9.33-2.25-1.12-5.46-2.14-5.46-5.62,0-2.5.38-4.87.25-6.5-.64-8.33-4.15-24.3-4.79-34.37q-.22-3.49-.27-7.17c-.13-9.95,20.16-3.94,19.85-.35-1.24,14.39-4,39.39-5.08,44.52,0,0,14.81,10.42,14.33,14.17C280.54,431.69,280.83,435.08,276.83,434.08Z"/><path class="cls-2" d="M254.06,338.74a209.45,209.45,0,0,0-2.31,32.33c3.27-1.18,16.85-1.31,19.83-.35.31-3.58.53-6.52.59-8.31.33-9,.33-23,.33-23,.7-8.06,15.46-64,14.4-76.25a139.1,139.1,0,0,0-3.18-20.22h-13c-2.65,8-16.7,6.23-18.08,14.29.82,17.7,2,44.34,1.38,57.76C253.59,323.12,254.06,338.74,254.06,338.74Z"/><path class="cls-2" d="M225.5,272.25c-10,1.38-17.75,1.93-28.69,2.75-1.7,3-3,16.4-2.5,19.5-6.09,1.08-36.56,9-36.56-7.5,0-24.25,73.07-42.17,70.58-44.06,0,0,31,16,15.17,25A95.52,95.52,0,0,1,225.5,272.25Z"/><path class="cls-10" d="M183.5,277.5s9.92-2.75,18.75-4.75C202.25,272.75,196.13,271.75,183.5,277.5Z"/><path class="cls-5" d="M254.41,296.42c-.2-4.12.24-20.3.45-21.79.5-3.6-.91-6.44-4.28-7.31a11.13,11.13,0,0,0-6.72.45c-9.36,4-32.19,2.06-47.05,6.31-2.32.66-3.64,20.81-2.5,20.42,19.66-6.78,42.88-14.17,50.23-16.69,0,0,.74,21.36,4.51,21.63C251.34,299.6,254.61,300.54,254.41,296.42Z"/></svg>