<?xml version="1.0" standalone="no"?>
<!DOCTYPE svg PUBLIC "-//W3C//DTD SVG 20010904//EN"
 "http://www.w3.org/TR/2001/REC-SVG-20010904/DTD/svg10.dtd">
<svg version="1.0" xmlns="http://www.w3.org/2000/svg"
 width="96.000000pt" height="96.000000pt" viewBox="0 0 96.000000 96.000000"
 preserveAspectRatio="xMidYMid meet">

<g transform="translate(0.000000,96.000000) scale(0.100000,-0.100000)"
fill="#000000" stroke="none">
<path d="M310 806 c0 -9 5 -16 10 -16 6 0 10 4 10 9 0 6 -4 13 -10 16 -5 3
-10 -1 -10 -9z"/>
<path d="M272 718 c-18 -18 5 -38 43 -38 18 0 38 7 45 15 10 12 10 15 -4 15
-9 0 -16 5 -16 10 0 6 -4 10 -10 10 -5 0 -10 -6 -10 -14 0 -9 -7 -12 -20 -9
-11 3 -17 9 -14 14 7 13 0 11 -14 -3z"/>
<path d="M257 651 c-18 -6 -18 -7 1 -24 34 -31 75 -32 108 -2 l29 26 -27 -4
c-15 -2 -30 1 -33 7 -3 8 -7 7 -11 -1 -3 -8 -13 -9 -27 -4 -12 5 -30 5 -40 2z"/>
<path d="M286 573 c-4 -4 -23 -6 -42 -4 -65 5 -26 -45 48 -63 59 -14 158 28
130 56 -13 13 -62 20 -62 9 0 -9 -41 -8 -56 1 -6 4 -14 4 -18 1z"/>
<path d="M655 484 c-27 -7 -76 -16 -108 -20 -51 -6 -60 -10 -69 -33 -38 -98
-105 -221 -120 -221 -4 0 -8 7 -8 15 0 8 -4 15 -10 15 -15 0 0 -29 21 -40 23
-13 52 -13 44 -1 -5 9 66 194 72 187 2 -2 -7 -49 -20 -104 -26 -111 -29 -102
34 -116 l26 -6 -13 88 c-20 129 -16 136 21 42 36 -91 42 -120 23 -120 -23 0 1
-12 43 -21 40 -9 53 -6 157 37 73 30 117 54 124 68 10 20 10 20 -8 4 -19 -17
-21 -15 -51 31 -27 41 -64 124 -87 194 -6 20 -5 20 -71 1z"/>
<path d="M191 476 c-18 -21 51 -49 120 -49 76 0 166 46 120 61 -6 2 -9 -3 -5
-11 7 -20 -63 -17 -76 3 -8 12 -10 12 -16 -3 -7 -19 -34 -24 -34 -6 0 8 -6 7
-17 -2 -13 -11 -17 -11 -20 -2 -3 9 -14 11 -30 7 -18 -5 -24 -3 -19 5 10 16
-9 14 -23 -3z"/>
<path d="M319 362 c-11 -2 -19 -18 -23 -44 -8 -47 -6 -51 26 -46 21 3 23 7 18
48 -4 35 -9 45 -21 42z"/>
</g>
</svg>
