<?xml version="1.0" encoding="utf-8"?>
<!-- Generator: Adobe Illustrator 22.0.0, SVG Export Plug-In . SVG Version: 6.00 Build 0)  -->
<svg version="1.1" id="Layer_1" xmlns="http://www.w3.org/2000/svg" xmlns:xlink="http://www.w3.org/1999/xlink" x="0px" y="0px"
	 viewBox="0 0 256 256" style="enable-background:new 0 0 256 256;" xml:space="preserve">
<style type="text/css">
	.st0{fill:#A4C9FF;}
	.st1{fill:#3762CC;}
	.st2{fill:#F9CFCF;}
	.st3{fill:#E0EBFC;}
	.st4{fill:#4671C6;}
	.st5{fill:#6BDDDD;}
	.st6{fill:#F9A7A7;}
	.st7{fill:#FFEA92;}
	.st8{fill:#EAA97D;}
</style>
<g>
	<g>
		<g>
			<path class="st8" d="M8.005,141.597v100.292c0,3.314,2.686,6,6,6h228c3.314,0,6-2.686,6-6V141.597H8.005z"/>
		</g>
	</g>
	<g>
		<g>
			<path class="st1" d="M242.005,249.89h-228c-4.411,0-8-3.589-8-8V141.597c0-1.104,0.896-2,2-2h240c1.104,0,2,0.896,2,2V241.89
				C250.005,246.301,246.416,249.89,242.005,249.89z M10.005,143.597v98.293c0,2.206,1.794,4,4,4h228c2.206,0,4-1.794,4-4v-98.293
				H10.005z"/>
		</g>
	</g>
	<g>
		<g>
			<path class="st3" d="M37.809,46.732c-2.035,0-3.685,1.65-3.685,3.686v36.314v73v40h7.371v-40c0-11.088,0-98.272,0-109.314
				C41.494,48.382,39.844,46.732,37.809,46.732z"/>
		</g>
	</g>
	<g>
		<g>
			<path class="st3" d="M244.32,77.139c-2.035,0-3.685,1.65-3.685,3.686v36.314v73v40h7.371v-40v-73V80.825
				C248.005,78.789,246.355,77.139,244.32,77.139z"/>
		</g>
	</g>
	<g>
		<g>
			<path class="st1" d="M240.634,168.349c-0.089,0-0.179-0.006-0.269-0.019l-199.14-26.954c-0.992-0.135-1.732-0.981-1.732-1.982
				V53.14c0-0.577,0.25-1.126,0.684-1.506c0.435-0.38,1.012-0.557,1.584-0.476l199.141,26.954c0.991,0.134,1.731,0.98,1.731,1.981
				v86.255c0,0.577-0.249,1.126-0.684,1.506C241.583,168.175,241.115,168.349,240.634,168.349z M43.494,137.646l195.14,26.413
				V81.841L43.494,55.429V137.646z"/>
		</g>
	</g>
	<g>
		<g>
			<path class="st1" d="M126.839,152.946c-1.104,0-2-0.896-2-2V64.691c0-1.104,0.896-2,2-2s2,0.896,2,2v86.255
				C128.839,152.051,127.944,152.946,126.839,152.946z"/>
		</g>
	</g>
	<g>
		<g>
			<path class="st1" d="M98.391,149.095c-1.104,0-2-0.896-2-2V60.817c0-1.104,0.896-2,2-2s2,0.896,2,2v86.277
				C100.391,148.199,99.495,149.095,98.391,149.095z"/>
		</g>
	</g>
	<g>
		<g>
			<path class="st1" d="M69.942,145.244c-1.104,0-2-0.896-2-2V56.99c0-1.104,0.896-2,2-2s2,0.896,2,2v86.254
				C71.942,144.349,71.047,145.244,69.942,145.244z"/>
		</g>
	</g>
	<g>
		<g>
			<path class="st1" d="M155.288,156.856c-1.104,0-2-0.896-2-2V68.542c0-1.104,0.896-2,2-2s2,0.896,2,2v86.314
				C157.288,155.961,156.393,156.856,155.288,156.856z"/>
		</g>
	</g>
	<g>
		<g>
			<path class="st1" d="M183.737,160.647c-1.104,0-2-0.896-2-2V72.393c0-1.104,0.896-2,2-2s2,0.896,2,2v86.255
				C185.737,159.752,184.842,160.647,183.737,160.647z"/>
		</g>
	</g>
	<g>
		<g>
			<path class="st1" d="M212.186,164.498c-1.104,0-2-0.896-2-2V76.243c0-1.104,0.896-2,2-2s2,0.896,2,2v86.255
				C214.186,163.603,213.29,164.498,212.186,164.498z"/>
		</g>
	</g>
	<g>
		<g>
			<path class="st1" d="M240.637,82.094c-0.09,0-0.18-0.006-0.271-0.018L41.226,55.121c-1.095-0.147-1.862-1.155-1.714-2.25
				c0.148-1.094,1.155-1.868,2.25-1.713l199.141,26.954c1.095,0.147,1.861,1.155,1.713,2.25
				C242.479,81.365,241.622,82.094,240.637,82.094z"/>
		</g>
	</g>
	<g>
		<g>
			<path class="st1" d="M240.637,110.846c-0.09,0-0.18-0.006-0.271-0.019L41.226,83.872c-1.095-0.147-1.862-1.155-1.714-2.25
				c0.148-1.094,1.155-1.866,2.25-1.713l199.141,26.955c1.095,0.147,1.861,1.155,1.713,2.25
				C242.479,110.117,241.622,110.846,240.637,110.846z"/>
		</g>
	</g>
	<g>
		<g>
			<path class="st1" d="M240.637,139.597c-0.09,0-0.18-0.006-0.271-0.019l-199.14-26.954c-1.095-0.147-1.862-1.155-1.714-2.25
				s1.155-1.859,2.25-1.714l199.141,26.955c1.095,0.147,1.861,1.155,1.713,2.25C242.479,138.868,241.622,139.597,240.637,139.597z"
				/>
		</g>
	</g>
	<g>
		<g>
			<path class="st1" d="M240.637,168.349c-0.09,0-0.18-0.006-0.271-0.019l-199.14-26.955c-1.095-0.147-1.862-1.155-1.714-2.25
				c0.148-1.094,1.155-1.869,2.25-1.713l199.141,26.955c1.095,0.147,1.861,1.155,1.713,2.25
				C242.479,167.62,241.622,168.349,240.637,168.349z"/>
		</g>
	</g>
	<g>
		<g>
			<path class="st1" d="M41.494,201.732h-7.371c-1.104,0-2-0.896-2-2V50.418c0-3.135,2.55-5.686,5.686-5.686
				s5.686,2.551,5.686,5.686v149.314C43.494,200.837,42.599,201.732,41.494,201.732z M36.123,197.732h3.371V50.418
				c0-0.93-0.756-1.686-1.686-1.686s-1.686,0.756-1.686,1.686V197.732z"/>
		</g>
	</g>
	<g>
		<g>
			<path class="st1" d="M247.994,232.149h-7.371c-1.104,0-2-0.896-2-2V80.835c0-3.135,2.551-5.686,5.686-5.686
				s5.686,2.551,5.686,5.686v149.314C249.994,231.254,249.099,232.149,247.994,232.149z M242.623,228.149h3.371V80.835
				c0-0.93-0.756-1.686-1.686-1.686s-1.686,0.756-1.686,1.686V228.149z"/>
		</g>
	</g>
	<g>
		<g>
			<path class="st2" d="M73.946,163.296l-40.435-7.733l-0.89-2.713c-1.923-5.86-9.429-7.749-12.307-2.487L8.309,172.313
				c-1.18,2.158,1.194,4.513,3.338,3.352l15.517-8.401l49.078,18.463c2.987,1.124,6.346-0.114,7.889-2.907l1.556-2.814
				L73.946,163.296z"/>
		</g>
	</g>
	<g>
		<g>
			<path class="st1" d="M78.472,188.133c-0.982,0-1.975-0.173-2.934-0.533l-48.224-18.143l-14.715,7.967
				c-1.754,0.948-3.878,0.633-5.29-0.784c-1.408-1.414-1.711-3.539-0.755-5.287l12.005-21.949c1.562-2.855,4.405-4.388,7.61-4.09
				c3.752,0.345,7.108,3.123,8.352,6.914l0.523,1.593l39.277,7.512c0.51,0.098,0.962,0.39,1.261,0.815l11.742,16.71
				c0.44,0.625,0.484,1.447,0.114,2.117l-1.555,2.813C84.369,186.526,81.471,188.133,78.472,188.133z M27.164,165.264
				c0.238,0,0.477,0.042,0.704,0.128l49.079,18.464c2.043,0.768,4.379-0.092,5.435-2.003l0.95-1.719l-10.558-15.024l-39.64-7.581
				c-0.714-0.137-1.298-0.65-1.525-1.342l-0.89-2.713c-0.871-2.653-3.097-4.01-4.917-4.177c-0.939-0.095-2.66,0.062-3.734,2.026
				l-12.005,21.949c-0.045,0.082-0.164,0.299,0.08,0.545c0.251,0.25,0.477,0.13,0.551,0.089l15.517-8.401
				C26.507,165.345,26.835,165.264,27.164,165.264z"/>
		</g>
	</g>
	<g>
		<g>
			<path class="st2" d="M163.763,108.965l-0.761-0.216l-15.343-2.844l-0.322-0.023l-8.571,0.486
				c-44.629-5.403-0.591-0.95-57.321-6.94l0.287,15.832h52.871l16.887,3.24c0.166,0.032,0.337-0.006,0.475-0.104
				c1.032-0.737,0.847-2.322-0.326-2.802l-5.47-2.236l16.052-1.601c1.13-0.113,1.991-1.064,1.991-2.2
				C164.211,109.283,164.028,109.04,163.763,108.965z"/>
		</g>
	</g>
	<g>
		<g>
			<path class="st1" d="M151.602,120.511c-0.16,0.001-0.322-0.015-0.481-0.044l-16.707-3.206H81.732c-1.09,0-1.98-0.873-2-1.964
				l-0.287-15.833c-0.011-0.573,0.226-1.123,0.648-1.511c0.422-0.388,0.991-0.568,1.561-0.515
				c31.395,3.314,32.021,3.441,33.877,3.815c1.409,0.284,3.534,0.714,23.298,3.107l8.394-0.477c0.087-0.004,0.173-0.003,0.259,0.002
				l0.321,0.023c0.073,0.006,0.146,0.016,0.219,0.028l15.343,2.844c0.062,0.012,0.122,0.025,0.182,0.043l0.761,0.216
				c1.121,0.317,1.903,1.353,1.903,2.518c0,2.174-1.631,3.975-3.795,4.189l-8.749,0.872c0.518,0.555,0.856,1.269,0.947,2.048
				c0.152,1.307-0.418,2.593-1.489,3.356C152.683,120.343,152.146,120.511,151.602,120.511z M83.696,113.261h50.907
				c0.127,0,0.253,0.012,0.377,0.036l10.84,2.08l-0.408-0.167c-0.851-0.348-1.354-1.23-1.223-2.14
				c0.133-0.909,0.867-1.611,1.781-1.702l13.126-1.309l-11.775-2.174l-8.441,0.479c-0.118,0.006-0.235,0.003-0.354-0.012
				c-20.083-2.432-22.311-2.881-23.785-3.179c-1.631-0.329-2.27-0.457-31.256-3.521L83.696,113.261z M163.217,110.889
				C163.218,110.889,163.218,110.89,163.217,110.889C163.218,110.889,163.218,110.889,163.217,110.889z M163.215,110.889
				c0.001,0,0.002,0,0.002,0l0,0H163.215z"/>
		</g>
	</g>
	<g>
		<g>
			<path class="st2" d="M95.892,77.772c-0.351-0.927-1.431-1.385-2.429-1.117c-1,0.27-0.899-0.616-2.882-7.98
				c-1.457-5.408-7.212-8.559-12.855-7.039l-6.592,1.775c-6.235,1.679-9.985,7.884-8.376,13.859l3.12,11.584
				c1.041,3.865,4.074,6.676,7.772,7.732v3.736c-5.087,2.392-8.617,7.549-8.617,13.542v31.398H94.98v-31.398
				c0-6.196-3.764-11.512-9.129-13.789v-4.998c7.13-1.921,9.757-7.74,8.403-12.765l-0.488-1.812l0.765-0.206
				C95.649,79.994,96.295,78.835,95.892,77.772z"/>
		</g>
	</g>
	<g>
		<g>
			<path class="st1" d="M87.723,77.291c0.938-0.253,1.497-1.221,1.244-2.158l-0.763-2.832c-0.252-0.937-1.221-1.494-2.16-1.241
				c-0.938,0.253-1.496,1.221-1.244,2.158l0.763,2.832C85.816,76.987,86.785,77.544,87.723,77.291z"/>
		</g>
	</g>
	<g>
		<g>
			<path class="st1" d="M94.98,147.263H65.034c-1.104,0-2-0.896-2-2v-31.398c0-6.104,3.343-11.763,8.617-14.757v-1.099
				c-3.813-1.556-6.642-4.695-7.703-8.634l-3.12-11.584c-0.921-3.422-0.401-7.007,1.466-10.095c1.85-3.062,4.805-5.269,8.321-6.216
				l6.592-1.775c3.228-0.869,6.596-0.481,9.478,1.099c2.911,1.594,4.98,4.205,5.828,7.352c0.468,1.739,0.821,3.118,1.1,4.208
				c0.22,0.86,0.422,1.651,0.582,2.215c1.581,0.051,3.002,0.992,3.568,2.485c0.384,1.014,0.321,2.15-0.174,3.12
				c-0.326,0.638-0.819,1.171-1.417,1.552l0.016,0.058c1.475,5.474-0.968,12.07-8.334,14.75v2.267
				c5.587,2.908,9.129,8.68,9.129,15.055v31.398C96.98,146.367,96.085,147.263,94.98,147.263z M67.034,143.263H92.98v-29.398
				c0-5.219-3.105-9.908-7.91-11.947c-0.739-0.313-1.219-1.038-1.219-1.841v-4.998c0-0.904,0.606-1.696,1.48-1.931
				c6.259-1.687,8.012-6.528,6.992-10.313l-0.488-1.812c-0.258-0.958,0.226-1.941,1.099-2.34c-0.344-0.035-0.668-0.142-0.972-0.318
				c-1.111-0.649-1.347-1.573-2.226-5.01c-0.275-1.077-0.624-2.44-1.086-4.158c-0.562-2.085-1.942-3.819-3.887-4.884
				c-1.974-1.081-4.289-1.344-6.517-0.745l-6.592,1.776c-2.515,0.677-4.624,2.247-5.938,4.421c-1.297,2.146-1.662,4.628-1.027,6.985
				l3.12,11.584c0.823,3.057,3.212,5.422,6.39,6.33c0.858,0.245,1.451,1.029,1.451,1.923v3.735c0,0.774-0.448,1.48-1.149,1.81
				c-4.537,2.134-7.468,6.739-7.468,11.732V143.263z"/>
		</g>
	</g>
	<g>
		<g>
			<path class="st4" d="M71.212,95.594c-9.982-3.732-15.203-12.618-15.383-22.341l0.001,0.001c-0.086-4.313,1.741-8.454,4.89-11.455
				c0,0-0.003-0.003-0.003-0.003c3.847-4.007,12.115-6.144,18.591-6.51l0,0c3.899-0.123,8.868,0.736,13.17,4.658
				c0.224,0.204,0.122,0.571-0.181,0.653l-2.216,0.597c0,0,2.95,0.881,4.101,3.93c0.083,0.22-0.085,0.46-0.328,0.472
				c-2.084,0.105-10.571,0.775-17.896,4.904c-0.379,0.214-0.569,0.644-0.46,1.051c0.716,2.659,0.15,0.539,3.21,12.041
				C78.116,92.146,79.718,89.759,71.212,95.594z"/>
		</g>
	</g>
	<g>
		<g>
			<path class="st2" d="M75.098,172.353l-41.138-1.561l-1.288-2.548c-2.782-5.503-10.487-6.243-12.541-0.607l-8.566,23.506
				c-0.841,2.307,1.855,4.285,3.805,2.812l14.076-10.64l51.298,10.869c3.122,0.661,6.256-1.067,7.362-4.061l1.114-3.016l2.26-6.319
				L75.098,172.353z"/>
		</g>
	</g>
	<g>
		<g>
			<path class="st1" d="M13.891,196.458c-0.931,0-1.864-0.296-2.663-0.887c-1.605-1.187-2.225-3.241-1.542-5.113l8.565-23.506
				c1.115-3.059,3.697-4.998,6.908-5.188c3.762-0.237,7.498,2.018,9.296,5.578l0.757,1.496l39.961,1.517
				c0.293,0.012,0.58,0.087,0.84,0.221l16.383,8.434c0.892,0.459,1.305,1.508,0.968,2.452l-3.382,9.355
				c-1.439,3.896-5.587,6.183-9.653,5.324L29.924,185.46l-13.348,10.091C15.775,196.155,14.834,196.458,13.891,196.458z
				 M25.664,165.748c-0.09,0-0.18,0.003-0.268,0.008c-0.936,0.056-2.62,0.463-3.387,2.565l-8.565,23.506
				c-0.029,0.08-0.117,0.321,0.163,0.528c0.283,0.21,0.49,0.055,0.558,0.004l14.075-10.641c0.462-0.35,1.053-0.479,1.621-0.361
				l51.298,10.869c2.134,0.453,4.315-0.749,5.072-2.797l1.115-3.017l1.663-4.649l-14.43-7.429l-40.694-1.544
				c-0.727-0.028-1.381-0.447-1.709-1.097l-1.289-2.548C29.687,166.774,27.451,165.748,25.664,165.748z"/>
		</g>
	</g>
	<g>
		<g>
			<path class="st5" d="M65.034,142.256c0,5.233,0.164,3.691-0.631,6.951c-0.628,2.576-0.509,5.278,0.342,7.79l5.138,15.159
				l21.597,8.632l3.499-34.169v-4.362H65.034z"/>
		</g>
	</g>
	<g>
		<g>
			<path class="st1" d="M91.481,182.787c-0.251,0-0.503-0.047-0.742-0.143l-21.597-8.632c-0.543-0.218-0.964-0.661-1.152-1.216
				l-5.138-15.159c-0.975-2.875-1.11-5.954-0.392-8.904c0.119-0.488,0.217-0.872,0.298-1.187c0.299-1.169,0.299-1.169,0.285-3.08
				c-0.004-0.568-0.009-1.284-0.009-2.211c0-1.104,0.896-2,2-2H94.98c1.104,0,2,0.896,2,2v4.362c0,0.068-0.003,0.136-0.01,0.204
				l-3.5,34.169c-0.064,0.624-0.417,1.182-0.954,1.507C92.2,182.689,91.841,182.787,91.481,182.787z M71.482,170.641l18.279,7.306
				l3.219-31.431v-2.26H67.042c0,0.062,0.001,0.123,0.001,0.183c0.016,2.246,0.017,2.429-0.41,4.1
				c-0.077,0.303-0.172,0.671-0.286,1.143c-0.539,2.21-0.437,4.519,0.293,6.674L71.482,170.641z"/>
		</g>
	</g>
	<g>
		<g>
			<path class="st1" d="M92.648,86.06c-0.918,0-1.966-0.284-3.023-1.278l-0.257-0.242c-0.403-0.378-0.422-1.011-0.044-1.413
				c0.378-0.402,1.013-0.422,1.414-0.044l0.258,0.242c1.099,1.032,2.041,0.76,3.039,0.472l0.319-0.091
				c0.534-0.145,1.082,0.171,1.226,0.705c0.144,0.533-0.171,1.082-0.705,1.227l-0.284,0.08C94.076,85.865,93.406,86.06,92.648,86.06
				z"/>
		</g>
	</g>
	<g>
		<g>
			<path class="st1" d="M71.212,97.594c-0.236,0-0.473-0.042-0.7-0.127C60.428,93.698,54.036,84.434,53.83,73.29
				c-0.094-4.749,1.875-9.421,5.408-12.84c0.012-0.013,0.024-0.025,0.036-0.038c4.493-4.68,13.54-6.762,19.922-7.123
				c5.67-0.167,10.719,1.611,14.63,5.179c0.641,0.585,0.911,1.471,0.706,2.312c-0.066,0.27-0.177,0.521-0.325,0.746
				c0.717,0.733,1.39,1.682,1.847,2.893c0.262,0.696,0.175,1.483-0.233,2.107c-0.412,0.63-1.108,1.029-1.861,1.068
				c-1.557,0.078-9.429,0.644-16.307,4.261c0.323,1.197,0.335,1.245,1.639,6.145l1.351,5.079c0.057,0.212,0.078,0.433,0.062,0.652
				c-0.09,1.294-0.128,2.333-0.159,3.185c-0.179,4.84-0.683,5.331-5.219,8.327c-0.82,0.542-1.804,1.19-2.983,2
				C72.005,97.475,71.61,97.594,71.212,97.594z M62.244,63.095c-0.045,0.053-0.094,0.104-0.145,0.153
				c-2.787,2.655-4.343,6.287-4.27,9.966C58,82.469,62.888,89.919,70.964,93.343c0.82-0.555,1.535-1.026,2.157-1.438
				c1.673-1.105,2.779-1.836,3.091-2.321c0.235-0.365,0.274-1.172,0.335-2.815c0.03-0.812,0.066-1.787,0.144-2.98l-1.266-4.76
				c-1.313-4.938-1.313-4.938-1.645-6.167l-0.213-0.789c-0.347-1.287,0.232-2.649,1.408-3.313c5.711-3.219,12.016-4.44,15.861-4.903
				c-0.689-0.537-1.317-0.74-1.328-0.744c-0.856-0.256-1.439-1.049-1.428-1.942c0.008-0.6,0.282-1.146,0.722-1.513
				c-2.712-1.688-5.872-2.475-9.432-2.37C73.562,57.614,65.723,59.572,62.244,63.095z M91.776,58.667
				c-0.002,0-0.004,0.001-0.006,0.002L91.776,58.667z"/>
		</g>
	</g>
	<g>
		<g>
			<circle class="st2" cx="78.913" cy="78.327" r="5.672"/>
		</g>
	</g>
	<g>
		<g>
			<path class="st3" d="M96.27,26.359c-0.034-0.002-0.081-0.013-0.134-0.028c-0.009,0.014-0.018,0.028-0.027,0.042l0-0.002
				c-1.15,1.797-2.599,3.367-4.111,4.612c0,0-0.001,0-0.001-0.001c-2.438,2.008-5.085,3.08-6.343,3.352
				c-0.001-0.001-0.003-0.002-0.004-0.003c-2.192,0.682-5.309,1.043-7.013,0.838c6.448,15.18,29.943,14.948,35.706-1.888
				C109.296,26.809,101.515,25.133,96.27,26.359z"/>
		</g>
	</g>
	<g>
		<g>
			<path class="st3" d="M86.685,18.427l0.002,0.001c-1.944-3.245-2.354-5.683-2.417-6.146c-3.302,2.621-5.723,6.301-6.748,10.526
				c-0.976,4.022-0.658,8.397,1.118,12.375c-0.001-0.008-0.002-0.013-0.002-0.013c1.663,0.2,4.771-0.14,7.013-0.838
				c0.001,0.001,0.003,0.002,0.004,0.003c4.485-1.371,8.008-4.183,10.455-7.964C93.178,25.327,88.751,22.297,86.685,18.427z"/>
		</g>
	</g>
	<g>
		<g>
			<path class="st3" d="M84.27,12.284c0.064,0.467,0.475,2.903,2.417,6.144l-0.002-0.001c2.108,3.949,6.627,6.948,9.425,7.944
				l0,0.002c0.009-0.014,0.018-0.028,0.027-0.042c0.053,0.015,0.1,0.026,0.134,0.028c3.813-0.891,12.308-0.47,18.075,6.924
				C120.267,14.888,98.968,0.616,84.27,12.284z"/>
		</g>
	</g>
	<g>
		<g>
			<path class="st3" d="M110.553,20.29c-6.714-5.627-16.303-5.971-23.37-1.061c2.885,4.29,7.103,6.492,8.927,7.141l0,0.002
				c0.009-0.014,0.018-0.028,0.027-0.042c0.053,0.015,0.1,0.026,0.134,0.028c3.813-0.891,12.308-0.47,18.075,6.924
				c0.768-2.386,1.044-4.606,0.986-6.639C113.349,22.579,110.553,20.29,110.553,20.29z"/>
		</g>
	</g>
	<g>
		<g>
			<path class="st3" d="M106.983,27.521c-3.601-1.523-8.073-1.779-10.713-1.162c-0.034-0.002-0.081-0.013-0.134-0.028
				c-0.009,0.014-0.018,0.028-0.027,0.042l0-0.002c-1.15,1.797-2.599,3.367-4.111,4.612c0,0-0.001,0-0.001-0.001
				c-2.438,2.008-5.085,3.08-6.343,3.352c-0.001-0.001-0.003-0.002-0.004-0.003c-2.192,0.682-5.309,1.043-7.013,0.838
				c0,0,0.887,2.088,2.241,3.683C91.274,43.494,103.343,38.154,106.983,27.521z"/>
		</g>
	</g>
	<g>
		<g>
			<path class="st3" d="M80.284,25.149l0.002,0.001c-1.126-1.88-1.737-3.488-2.064-4.599c-0.277,0.732-0.512,1.485-0.7,2.257
				c-0.976,4.022-0.658,8.397,1.118,12.375c-0.001-0.008-0.002-0.013-0.002-0.013c1.663,0.2,4.771-0.14,7.013-0.838
				c0.001,0.001,0.003,0.002,0.004,0.003c1.121-0.343,2.306-0.814,3.5-1.459C85.945,31.528,82.126,28.6,80.284,25.149z"/>
		</g>
	</g>
	<g>
		<g>
			<path class="st1" d="M95.996,48.246c-8.521,0-15.998-4.759-19.199-12.293c-0.279-0.657-0.187-1.413,0.242-1.983
				s1.128-0.868,1.837-0.784c1.304,0.154,4.096-0.112,6.182-0.763c0.083-0.025,0.169-0.046,0.255-0.061
				c1.083-0.258,3.349-1.224,5.413-2.924c1.444-1.188,2.724-2.621,3.699-4.146c0.098-0.153,0.214-0.289,0.344-0.406
				c0.377-0.346,0.876-0.548,1.384-0.551c5.938-1.246,14.251,0.642,19.769,7.717c0.415,0.532,0.534,1.238,0.315,1.877
				c-2.908,8.495-10.347,13.976-19.414,14.302C96.546,48.241,96.271,48.246,95.996,48.246z M81.959,37.1
				c3.151,4.622,8.639,7.377,14.72,7.134c5.529-0.198,12.34-3.098,15.386-10.565c-4.313-4.864-10.448-6.253-14.767-5.48
				c-1.12,1.593-2.5,3.08-4.027,4.34c-2.49,2.048-5.37,3.354-7.143,3.751C84.867,36.66,83.378,36.945,81.959,37.1z M96.671,24.404
				L96.671,24.404C96.671,24.404,96.671,24.404,96.671,24.404z"/>
		</g>
	</g>
	<g>
		<g>
			<path class="st1" d="M79.747,37.228c-0.387,0-0.752-0.014-1.086-0.044c-0.756-0.019-1.516-0.442-1.847-1.185
				c-1.901-4.259-2.34-9.11-1.236-13.662c1.106-4.559,3.751-8.686,7.448-11.621c0.562-0.446,1.321-0.558,1.989-0.29
				c0.667,0.269,1.139,0.873,1.236,1.585c0.033,0.238,0.371,2.418,2.151,5.391c0.017,0.028,0.032,0.056,0.047,0.084
				c1.728,3.236,5.582,6.022,8.332,7.002c0.576,0.205,1.026,0.662,1.223,1.241c0.196,0.579,0.117,1.216-0.215,1.729
				c-2.776,4.289-6.77,7.328-11.549,8.79c-0.035,0.01-0.069,0.02-0.104,0.028C84.187,36.868,81.688,37.228,79.747,37.228z
				 M83.256,16.001c-1.824,2.083-3.139,4.589-3.792,7.279c-0.799,3.294-0.604,6.78,0.541,9.945c1.44-0.031,3.454-0.306,5.052-0.803
				c0.037-0.011,0.073-0.021,0.11-0.03c3.139-0.979,5.78-2.733,7.877-5.229c-3.045-1.669-6.344-4.49-8.101-7.75
				C84.191,18.15,83.648,16.995,83.256,16.001z"/>
		</g>
	</g>
	<g>
		<g>
			<path class="st1" d="M114.345,35.282c-0.61,0-1.194-0.279-1.577-0.77c-5.194-6.661-12.765-6.97-16.042-6.207
				c-0.187,0.044-0.379,0.06-0.569,0.05c-0.032-0.002-0.064-0.005-0.095-0.008c-0.206-0.005-0.414-0.042-0.614-0.113l-0.008,0.021
				c-2.866-1.02-8.032-4.228-10.518-8.885c-2.04-3.402-2.531-6.077-2.632-6.814c-0.096-0.7,0.185-1.398,0.738-1.838
				c7.467-5.929,17.366-6.244,25.218-0.808c7.812,5.41,10.954,14.824,8.004,23.985c-0.227,0.705-0.825,1.227-1.555,1.356
				C114.577,35.272,114.46,35.282,114.345,35.282z M99.461,24.033c3.933,0,9.25,1.151,13.771,5.149
				c0.952-7.334-2.896-12.959-7.264-15.983C99.937,9.022,92.42,9.029,86.5,13.12c0.272,0.962,0.821,2.475,1.903,4.281
				c1.763,3.299,5.509,5.9,7.912,6.904C97.193,24.14,98.263,24.033,99.461,24.033z M96.671,24.404L96.671,24.404L96.671,24.404z"/>
		</g>
	</g>
	<g>
		<g>
			<path class="st1" d="M114.345,35.282c-0.61,0-1.194-0.279-1.577-0.77c-5.194-6.661-12.765-6.97-16.042-6.207
				c-0.187,0.044-0.379,0.06-0.569,0.05c-0.032-0.002-0.064-0.005-0.095-0.008c-0.206-0.005-0.414-0.042-0.614-0.113l-0.007,0.021
				c-0.619-0.22-6.154-2.312-9.917-7.909c-0.61-0.907-0.379-2.136,0.519-2.759c7.853-5.456,18.456-4.978,25.791,1.166
				c0.247,0.204,3.195,2.702,5.296,7.014c0.125,0.255,0.193,0.534,0.201,0.818c0.069,2.408-0.295,4.868-1.081,7.311
				c-0.227,0.705-0.825,1.227-1.555,1.356C114.577,35.272,114.46,35.282,114.345,35.282z M99.461,24.033
				c3.929,0,9.238,1.148,13.755,5.136c0.082-0.684,0.123-1.364,0.122-2.038c-1.725-3.333-4.028-5.273-4.052-5.293
				c-0.006-0.005-0.012-0.01-0.018-0.015c-5.41-4.535-13.013-5.272-19.141-2.047c2.109,2.394,4.62,3.874,6.187,4.529
				C97.194,24.14,98.263,24.033,99.461,24.033z M96.671,24.404L96.671,24.404L96.671,24.404z"/>
		</g>
	</g>
	<g>
		<g>
			<path class="st1" d="M88.74,42.523c-2.962,0-5.923-0.614-8.676-1.844c-0.273-0.122-0.516-0.304-0.709-0.532
				c-1.533-1.807-2.516-4.098-2.557-4.194c-0.279-0.656-0.187-1.412,0.241-1.983c0.429-0.57,1.128-0.868,1.837-0.784
				c1.304,0.154,4.096-0.112,6.182-0.763c0.083-0.025,0.169-0.046,0.255-0.061c1.084-0.258,3.349-1.224,5.413-2.924
				c1.444-1.188,2.724-2.621,3.699-4.146c0.098-0.153,0.214-0.289,0.344-0.406c0.38-0.348,0.883-0.55,1.394-0.551
				c2.826-0.562,7.523-0.381,11.599,1.343c0.967,0.408,1.454,1.496,1.113,2.489c-1.923,5.619-6.164,10.208-11.633,12.59
				C94.537,41.935,91.638,42.523,88.74,42.523z M82.125,37.213c4.373,1.817,9.154,1.777,13.52-0.123
				c3.826-1.666,6.911-4.659,8.69-8.371c-2.528-0.695-5.232-0.81-7.042-0.522c-1.119,1.589-2.496,3.074-4.021,4.331
				c-2.49,2.048-5.37,3.354-7.143,3.751c-1.239,0.375-2.698,0.657-4.094,0.812C82.064,37.132,82.095,37.173,82.125,37.213z
				 M96.671,24.404L96.671,24.404C96.671,24.404,96.671,24.404,96.671,24.404z"/>
		</g>
	</g>
	<g>
		<g>
			<path class="st1" d="M79.747,37.228c-0.387,0-0.752-0.014-1.086-0.044c-0.007,0-0.014,0-0.021,0
				c-0.772,0-1.498-0.449-1.826-1.185c-1.901-4.259-2.34-9.11-1.236-13.662c0.204-0.839,0.464-1.679,0.773-2.494
				c0.305-0.803,1.1-1.322,1.946-1.29c0.858,0.033,1.6,0.61,1.843,1.434c0.272,0.924,0.816,2.392,1.861,4.137
				c0.023,0.039,0.045,0.079,0.066,0.119c1.669,3.097,5.241,5.688,7.862,6.79c0.71,0.298,1.186,0.978,1.223,1.746
				c0.038,0.77-0.37,1.492-1.047,1.857c-1.218,0.657-2.518,1.199-3.865,1.611c-0.035,0.011-0.069,0.021-0.104,0.029
				C84.187,36.868,81.688,37.228,79.747,37.228z M78.986,26.9c-0.055,2.15,0.289,4.303,1.019,6.325
				c1.288-0.027,3.035-0.25,4.533-0.652C82.486,31.145,80.424,29.223,78.986,26.9z"/>
		</g>
	</g>
	<g>
		<g>
			<path class="st2" d="M74.857,37.022c-0.739-0.464-1.695-0.387-2.351,0.189l-1.15,1.01l0,0l-2.8,2.102l-0.375-6.136l2.127-9.974
				c0.199-0.934-0.407-1.855-1.355-2.034c-0.307-0.058-0.614,0.115-0.764,0.388l-7.111,12.945l-1.231,11.554L44.477,76.701h0
				l-3.93,8.142c-0.771,1.598-0.528,3.499,0.621,4.851l27.601,32.496l11.348-13.639L57.376,85.434l8.402-28.186l0.002-0.006
				l0.929-3.117l0.015-0.025l0.889-2.958l7.499-13.101C75.314,37.688,75.202,37.238,74.857,37.022L74.857,37.022z"/>
		</g>
	</g>
	<g>
		<g>
			<path class="st1" d="M68.77,124.19c-0.567,0-1.13-0.239-1.525-0.705L39.644,90.99c-1.659-1.954-2.012-4.708-0.898-7.016
				l3.93-8.143l15.224-29.35l1.191-11.18c0.028-0.264,0.108-0.519,0.236-0.751l7.111-12.945c0.578-1.052,1.741-1.605,2.893-1.39
				c0.986,0.187,1.838,0.751,2.396,1.589s0.749,1.842,0.539,2.826l-2.07,9.707l0.13,2.127l0.862-0.757
				c1.311-1.151,3.257-1.307,4.734-0.381c1.259,0.788,1.667,2.417,0.927,3.707l-7.384,12.901l-0.823,2.739
				c-0.017,0.055-0.035,0.108-0.056,0.161L59.63,84.873l21.913,22.276c0.774,0.787,0.764,2.054-0.023,2.828
				c-0.787,0.774-2.052,0.766-2.828-0.023L55.95,86.836c-0.511-0.52-0.699-1.275-0.491-1.974l9.333-31.309
				c0.017-0.058,0.037-0.114,0.059-0.17l0.847-2.818c0.044-0.146,0.104-0.285,0.18-0.417l5.332-9.314l-1.451,1.09
				c-0.588,0.441-1.373,0.524-2.04,0.216c-0.668-0.309-1.112-0.959-1.157-1.693l-0.375-6.136c-0.011-0.181,0.002-0.362,0.04-0.539
				l1.21-5.676l-4.411,8.03l-1.188,11.155c-0.026,0.247-0.099,0.488-0.213,0.709L46.252,77.622l-3.904,8.091
				c-0.427,0.884-0.292,1.939,0.344,2.688l27.601,32.495c0.715,0.842,0.612,2.104-0.229,2.819
				C69.687,124.034,69.228,124.19,68.77,124.19z"/>
		</g>
	</g>
</g>
</svg>
