<?xml version="1.0" encoding="utf-8"?>
<!-- Generator: Adobe Illustrator 22.0.0, SVG Export Plug-In . SVG Version: 6.00 Build 0)  -->
<svg version="1.1" id="Layer_1" xmlns="http://www.w3.org/2000/svg" xmlns:xlink="http://www.w3.org/1999/xlink" x="0px" y="0px"
	 viewBox="0 0 256 256" style="enable-background:new 0 0 256 256;" xml:space="preserve">
<style type="text/css">
	.st0{fill:#A4C9FF;}
	.st1{fill:#3762CC;}
	.st2{fill:#F9CFCF;}
	.st3{fill:#E0EBFC;}
	.st4{fill:#4671C6;}
	.st5{fill:#6BDDDD;}
	.st6{fill:#F9A7A7;}
	.st7{fill:#FFEA92;}
	.st8{fill:#EAA97D;}
</style>
<g>
	<g>
		<g>
			<path class="st5" d="M132.515,59.52l1.363,0.787c15.812,9.129,21.229,29.347,12.1,45.159l-4.594,7.957L82.761,79.577l4.594-7.957
				C96.484,55.808,116.703,50.391,132.515,59.52z"/>
		</g>
	</g>
	<g>
		<g>
			<path class="st1" d="M141.384,115.423c-0.348,0-0.693-0.091-1-0.268L81.761,81.309c-0.957-0.552-1.284-1.775-0.732-2.732
				l4.594-7.957c9.667-16.742,31.15-22.497,47.892-12.832l1.363,0.787c8.11,4.682,13.911,12.242,16.334,21.288
				c2.424,9.045,1.18,18.493-3.502,26.603l-4.594,7.957c-0.265,0.459-0.702,0.794-1.214,0.932
				C141.731,115.4,141.557,115.423,141.384,115.423z M85.493,78.845l55.159,31.846l3.594-6.225
				c4.148-7.185,5.25-15.555,3.103-23.568c-2.147-8.014-7.286-14.711-14.471-18.859l-1.363-0.787l0,0
				C116.682,52.688,97.65,57.79,89.087,72.62L85.493,78.845z"/>
		</g>
	</g>
	<g>
		<g>
			<path class="st0" d="M248,122.964c-20.002,0-20.002,12-40.004,12s-20.002-12-40.004-12c-19.999,0-19.999,12-39.998,12
				c-20,0-20-12-40-12c-19.999,0-19.999,12-39.998,12c-19.999,0-19.999-12-39.997-12v74h240V122.964z"/>
		</g>
	</g>
	<g>
		<g>
			<path class="st1" d="M248,198.964H8c-1.104,0-2-0.896-2-2v-74c0-1.104,0.896-2,2-2c10.553,0,15.878,3.195,21.027,6.285
				c4.898,2.939,9.524,5.715,18.97,5.715c9.446,0,14.072-2.776,18.97-5.715c5.149-3.09,10.474-6.285,21.027-6.285
				c10.554,0,15.879,3.195,21.029,6.285c4.898,2.939,9.525,5.715,18.971,5.715c9.445,0,14.072-2.776,18.97-5.715
				c5.15-3.09,10.475-6.285,21.029-6.285c10.555,0,15.88,3.195,21.03,6.285c4.899,2.939,9.526,5.715,18.973,5.715
				s14.074-2.776,18.973-5.715c5.15-3.09,10.476-6.285,21.031-6.285c1.104,0,2,0.896,2,2v74
				C250,198.068,249.104,198.964,248,198.964z M10,194.964h236v-69.957c-8.126,0.364-12.433,2.948-16.973,5.671
				c-5.15,3.09-10.476,6.285-21.031,6.285c-10.555,0-15.88-3.195-21.031-6.285c-4.899-2.939-9.526-5.715-18.973-5.715
				c-9.446,0-14.072,2.776-18.971,5.715c-5.149,3.09-10.475,6.285-21.028,6.285c-10.554,0-15.879-3.195-21.028-6.285
				c-4.898-2.939-9.525-5.715-18.971-5.715c-9.445,0-14.071,2.776-18.969,5.715c-5.15,3.09-10.475,6.285-21.028,6.285
				c-10.553,0-15.878-3.195-21.027-6.285c-4.54-2.724-8.845-5.307-16.97-5.671V194.964z"/>
		</g>
	</g>
	<g>
		<g>
			<path class="st2" d="M135.6,111.603c-0.052-0.03-0.107-0.053-0.159-0.081l0.662-1.147l-47.3-27.309l-2.256,0.227
				c-4.03-2.472-9.448-1.216-11.876,2.988c-2.357,4.082-0.928,9.319,3.191,11.697c0.271,0.156,0.546,0.294,0.826,0.418
				c-3.665,12.174,1.419,25.758,13.002,32.445c11.583,6.688,25.889,4.299,34.6-4.963c0.247,0.18,0.504,0.35,0.775,0.506
				c4.119,2.378,9.369,0.997,11.726-3.085C141.148,119.218,139.719,113.981,135.6,111.603z"/>
		</g>
	</g>
	<g>
		<g>
			<path class="st1" d="M140.928,113.16l-1.797,2.32c-0.722-1.569-1.916-2.944-3.531-3.877c-0.052-0.03-0.106-0.053-0.159-0.081
				l0.662-1.147L140.928,113.16z"/>
		</g>
	</g>
	<g>
		<g>
			<path class="st2" d="M236.576,154.381l-19.622-7.023c-1.568-0.561-3.241-0.746-4.897-0.577l0.071-0.076l-21.19,2.958v0
				l-89.114-9.57l-0.247-0.143l3.074-5.325c-4.414-0.19-8.855-1.415-12.955-3.782c-4.095-2.365-7.373-5.593-9.744-9.314
				l-2.943,5.096L52.423,98.971c-0.562-0.584-0.592-1.498-0.07-2.118L78.53,65.774l25.89-15.121c0.598-0.35,0.966-0.99,0.966-1.684
				c0-1.186-1.05-2.097-2.225-1.93l-3.497,0.498c-0.778,0.111-1.225-0.857-0.636-1.378l13.694-12.09
				c1.3-1.148,1.56-3.077,0.609-4.528c-0.861-1.314-2.495-1.89-3.99-1.407l-21.036,6.798c-1.827,0.59-3.483,1.615-4.827,2.987
				L68.269,53.448L20.001,95.026c-3.304,2.846-3.686,7.828-0.854,11.145l29.405,34.435l-23.385,40.504l56.267,32.486l24.998-43.299
				l0,0c0.757-1.311,1.479-2.562,2.229-3.86c91.444-1.907,80.779-1.901,86.211-1.229l25.022,3.199
				c0.648,0.083,1.293-0.185,1.694-0.704c0.685-0.888,0.428-2.175-0.545-2.726l-2.897-1.641c-0.645-0.365-0.419-1.347,0.322-1.398
				l17.202-1.167c1.633-0.111,2.941-1.406,3.07-3.039C238.856,156.252,237.97,154.88,236.576,154.381z"/>
		</g>
	</g>
	<g>
		<g>
			<path class="st1" d="M86.548,83.293c-1.336-0.819-2.824-1.22-4.305-1.249l0.971-2.205l5.589,3.227L86.548,83.293z"/>
		</g>
	</g>
	<g>
		<g>
			<path class="st1" d="M101.886,120.95c-1.296,0-2.644-0.367-3.87-1.075c-1.761-1.017-3.037-2.609-3.501-4.371
				c-0.359-1.363-0.199-2.735,0.452-3.861c0.415-0.717,1.332-0.963,2.049-0.548s0.963,1.332,0.548,2.049
				c-0.256,0.442-0.307,0.995-0.148,1.596c0.262,0.993,1.027,1.917,2.1,2.537c1.066,0.616,2.287,0.823,3.263,0.559
				c0.6-0.164,1.052-0.484,1.308-0.926c0.415-0.717,1.332-0.963,2.049-0.55c0.718,0.414,0.964,1.332,0.55,2.049
				c-0.65,1.127-1.758,1.952-3.118,2.322C103.027,120.877,102.462,120.95,101.886,120.95z"/>
		</g>
	</g>
	<g>
		<g>
			<path class="st1" d="M116.691,115.468c1.627,0.94,3.716,0.38,4.655-1.247l2.84-4.918c0.939-1.627,0.38-3.715-1.248-4.655
				c-1.627-0.939-3.715-0.38-4.655,1.247l-2.84,4.918C114.505,112.441,115.064,114.529,116.691,115.468z"/>
		</g>
	</g>
	<g>
		<g>
			<path class="st1" d="M92.51,101.508c1.627,0.94,3.716,0.38,4.655-1.247l2.84-4.918c0.939-1.627,0.38-3.715-1.248-4.655
				c-1.627-0.939-3.715-0.38-4.655,1.247l-2.84,4.918C90.324,98.48,90.883,100.568,92.51,101.508z"/>
		</g>
	</g>
	<g>
		<g>
			<path class="st1" d="M81.435,215.595c-0.348,0-0.693-0.091-1-0.268l-56.267-32.486c-0.957-0.552-1.284-1.775-0.732-2.732
				l22.678-39.28l-28.487-33.36c-3.537-4.142-3.057-10.404,1.07-13.958l48.203-41.523l15.15-15.467
				c1.564-1.597,3.514-2.804,5.641-3.491l21.037-6.798c2.347-0.755,4.927,0.153,6.277,2.213c1.486,2.267,1.075,5.33-0.958,7.124
				l-10.707,9.452c0.984-0.02,1.937,0.316,2.685,0.965c0.865,0.75,1.361,1.838,1.361,2.983c0,1.398-0.75,2.706-1.958,3.411
				L79.837,67.327L54.124,97.855l24.482,25.468l1.613-2.793c0.35-0.605,0.99-0.984,1.688-1c0.711-0.014,1.354,0.335,1.73,0.925
				c2.293,3.599,5.34,6.511,9.058,8.657c3.723,2.149,7.774,3.332,12.042,3.516c0.698,0.03,1.33,0.423,1.667,1.036
				c0.336,0.613,0.328,1.357-0.021,1.962l-1.601,2.774l86.124,9.249l20.946-2.924c0.222-0.03,0.442-0.023,0.653,0.017
				c1.748-0.094,3.512,0.157,5.124,0.734l19.622,7.023c2.238,0.801,3.671,3.018,3.484,5.391c-0.205,2.604-2.323,4.701-4.928,4.877
				l-13.172,0.893c0.645,0.552,1.094,1.309,1.264,2.155c0.22,1.093-0.044,2.227-0.727,3.11c-0.83,1.076-2.182,1.637-3.53,1.465
				l-25.021-3.199c-0.526-0.065-0.913-0.125-1.252-0.178c-2.175-0.337-2.526-0.333-37.762,0.426
				c-11.291,0.243-26.148,0.563-45.775,0.973l-26.663,46.183c-0.265,0.459-0.702,0.794-1.214,0.932
				C81.782,215.573,81.608,215.595,81.435,215.595z M27.899,180.377l52.803,30.486l26.226-45.426c0.35-0.606,0.991-0.985,1.691-1
				c20.185-0.421,35.394-0.749,46.899-0.997c35.917-0.774,35.918-0.775,38.461-0.379c0.307,0.048,0.655,0.102,1.137,0.162
				l24.243,3.099l-2.2-1.246c-1.063-0.602-1.595-1.807-1.324-2.999c0.272-1.194,1.275-2.052,2.496-2.135l17.202-1.167
				c0.64-0.043,1.161-0.559,1.211-1.2c0.045-0.578-0.302-1.117-0.844-1.311l0,0l-19.623-7.023c-1.271-0.455-2.624-0.613-4.02-0.47
				c-0.149,0.014-0.294,0.013-0.438-0.003l-20.609,2.877c-0.162,0.022-0.327,0.025-0.49,0.008l-89.114-9.57
				c-0.278-0.03-0.546-0.118-0.788-0.257l-0.247-0.143c-0.956-0.553-1.283-1.775-0.731-2.731l1.523-2.638
				c-3.74-0.567-7.379-1.836-10.672-3.737c-3.288-1.898-6.203-4.41-8.562-7.361l-1.393,2.411c-0.314,0.544-0.866,0.91-1.491,0.985
				c-0.626,0.077-1.248-0.146-1.683-0.599l-26.585-27.655c-1.274-1.326-1.342-3.386-0.158-4.793L77,64.486
				c0.147-0.175,0.324-0.323,0.521-0.438l25.89-15.121l-3.465,0.591c-1.23,0.178-2.407-0.466-2.928-1.594
				c-0.521-1.129-0.245-2.44,0.687-3.263l13.694-12.091c0.551-0.486,0.663-1.317,0.26-1.932c-0.367-0.559-1.066-0.805-1.703-0.6
				l-21.037,6.798c-1.512,0.488-2.9,1.347-4.013,2.483L69.697,54.847c-0.04,0.041-0.081,0.079-0.124,0.116L21.307,96.541
				c-2.463,2.122-2.749,5.859-0.638,8.331l29.405,34.435c0.55,0.645,0.635,1.565,0.211,2.299L27.899,180.377z M220.057,166.716h0.01
				H220.057z"/>
		</g>
	</g>
	<g>
		<g>
			<path class="st3" d="M248,154.964c-20.002,0-20.002,12-40.004,12s-20.002-12-40.004-12c-19.999,0-19.999,12-39.998,12
				c-20,0-20-12-40-12c-19.999,0-19.999,12-39.998,12c-19.999,0-19.999-12-39.997-12v74h240V154.964z"/>
		</g>
	</g>
	<g>
		<g>
			<path class="st1" d="M248,230.964H8c-1.104,0-2-0.896-2-2v-74c0-1.104,0.896-2,2-2c10.553,0,15.878,3.195,21.027,6.285
				c4.898,2.939,9.524,5.715,18.97,5.715c9.446,0,14.072-2.776,18.97-5.715c5.149-3.09,10.474-6.285,21.027-6.285
				c10.554,0,15.879,3.195,21.029,6.285c4.898,2.939,9.525,5.715,18.971,5.715c9.445,0,14.072-2.776,18.97-5.715
				c5.15-3.09,10.475-6.285,21.029-6.285c10.555,0,15.88,3.195,21.03,6.285c4.899,2.939,9.526,5.715,18.973,5.715
				s14.074-2.776,18.973-5.715c5.15-3.09,10.476-6.285,21.031-6.285c1.104,0,2,0.896,2,2v74
				C250,230.068,249.104,230.964,248,230.964z M10,226.964h236v-69.957c-8.126,0.364-12.433,2.948-16.973,5.671
				c-5.15,3.09-10.476,6.285-21.031,6.285c-10.555,0-15.88-3.195-21.031-6.285c-4.899-2.939-9.526-5.715-18.973-5.715
				c-9.446,0-14.072,2.776-18.971,5.715c-5.149,3.09-10.475,6.285-21.028,6.285c-10.554,0-15.879-3.195-21.028-6.285
				c-4.898-2.939-9.525-5.715-18.971-5.715c-9.445,0-14.071,2.776-18.969,5.715c-5.15,3.09-10.475,6.285-21.028,6.285
				c-10.553,0-15.878-3.195-21.027-6.285c-4.54-2.724-8.845-5.307-16.97-5.671V226.964z"/>
		</g>
	</g>
	<g>
		<g>
			<path class="st0" d="M167.992,190.964c-19.999,0-19.999,12-39.998,12c-20,0-20-12-40-12c-19.999,0-19.999,12-39.998,12
				c-19.999,0-19.999-12-39.997-12v40c0,3.314,2.686,6,6,6h228c3.314,0,6-2.686,6-6v-40c-20.002,0-20.002,12-40.004,12
				C187.994,202.964,187.994,190.964,167.992,190.964z"/>
		</g>
	</g>
	<g>
		<g>
			<path class="st1" d="M242,238.964H14c-4.411,0-8-3.589-8-8v-40c0-1.104,0.896-2,2-2c10.553,0,15.878,3.195,21.027,6.285
				c4.898,2.939,9.524,5.715,18.97,5.715c9.446,0,14.072-2.776,18.97-5.715c5.149-3.09,10.474-6.285,21.027-6.285
				c10.554,0,15.879,3.195,21.029,6.285c4.898,2.939,9.525,5.715,18.971,5.715c9.445,0,14.072-2.776,18.97-5.715
				c5.15-3.09,10.475-6.285,21.029-6.285c10.555,0,15.88,3.195,21.03,6.285c4.899,2.939,9.526,5.715,18.973,5.715
				s14.074-2.776,18.973-5.715c5.15-3.09,10.476-6.285,21.031-6.285c1.104,0,2,0.896,2,2v40
				C250,235.375,246.411,238.964,242,238.964z M10,193.007v37.957c0,2.206,1.794,4,4,4h228c2.206,0,4-1.794,4-4v-37.957
				c-8.126,0.364-12.433,2.948-16.973,5.671c-5.15,3.09-10.476,6.285-21.031,6.285c-10.555,0-15.88-3.195-21.031-6.285
				c-4.899-2.939-9.526-5.715-18.973-5.715c-9.446,0-14.072,2.776-18.971,5.715c-5.149,3.09-10.475,6.285-21.028,6.285
				c-10.554,0-15.879-3.195-21.028-6.285c-4.898-2.939-9.525-5.715-18.971-5.715c-9.445,0-14.071,2.776-18.969,5.715
				c-5.15,3.09-10.475,6.285-21.028,6.285c-10.553,0-15.878-3.195-21.027-6.285C22.43,195.955,18.125,193.372,10,193.007z"/>
		</g>
	</g>
	<g>
		<g>
			<path class="st1" d="M105.938,136.688c-5.197,0-10.453-1.346-15.247-4.114c-11.752-6.785-17.496-20.247-14.345-33.182
				c-4.667-3.058-6.209-9.256-3.406-14.111c1.425-2.469,3.737-4.216,6.51-4.919c2.532-0.644,5.236-0.32,7.528,0.877l1.625-0.163
				c0.421-0.044,0.837,0.048,1.2,0.258l47.3,27.309c0.793,0.458,1.154,1.378,0.939,2.224c1.7,1.391,2.924,3.266,3.511,5.419
				c0.744,2.728,0.378,5.574-1.031,8.014c-1.408,2.44-3.69,4.18-6.425,4.899c-2.533,0.666-5.171,0.382-7.499-0.793
				C120.9,133.851,113.481,136.688,105.938,136.688z M82.062,84.036c-0.545,0-1.093,0.067-1.628,0.203
				c-1.718,0.436-3.149,1.517-4.03,3.042c-1.802,3.12-0.698,7.142,2.459,8.965c0.208,0.119,0.421,0.226,0.637,0.322
				c0.921,0.409,1.394,1.439,1.104,2.405c-3.497,11.616,1.473,24.009,12.087,30.137c10.614,6.128,23.831,4.236,32.143-4.601
				c0.69-0.733,1.817-0.84,2.633-0.248c0.191,0.139,0.39,0.271,0.599,0.392c1.532,0.884,3.312,1.125,5.015,0.678
				c1.695-0.446,3.107-1.522,3.979-3.031s1.097-3.271,0.636-4.961c-0.46-1.688-1.55-3.103-3.068-3.989
				c-0.046-0.023-0.131-0.066-0.151-0.077c-0.47-0.259-0.817-0.697-0.961-1.215c-0.082-0.293-0.095-0.599-0.042-0.893L88.362,85.121
				l-1.614,0.162c-0.436,0.042-0.873-0.056-1.246-0.285C84.469,84.364,83.271,84.036,82.062,84.036z"/>
		</g>
	</g>
	<g>
		<g>
			<path class="st3" d="M113.357,115.288l9.293,5.365c10.411,6.011,20.412-11.26,9.979-17.284l-9.293-5.365
				C112.924,91.994,102.923,109.265,113.357,115.288z"/>
		</g>
	</g>
	<g>
		<g>
			<path class="st4" d="M131.506,114.467l0.193-0.334c1.657-2.87,0.674-6.539-2.196-8.196l-6.828-3.942
				c-2.87-1.657-6.539-0.674-8.196,2.196l-0.193,0.334c-1.657,2.87-0.674,6.539,2.196,8.196l6.828,3.942
				C126.18,118.32,129.849,117.337,131.506,114.467z"/>
		</g>
	</g>
	<g>
		<g>
			<path class="st1" d="M127.061,123.906c-1.751,0-3.582-0.464-5.412-1.521l-9.292-5.365c-3.491-2.015-5.414-5.294-5.414-9.232
				c0-4.616,2.688-9.271,6.69-11.581c3.414-1.972,7.215-1.948,10.702,0.066l9.292,5.365c6.269,3.619,6.538,10.728,3.563,15.88
				C135.083,121.17,131.31,123.906,127.061,123.906z M118.906,98.754c-1.314,0-2.431,0.431-3.272,0.917
				c-2.762,1.595-4.69,4.932-4.69,8.117c0,1.732,0.592,4.14,3.414,5.769l0,0l9.292,5.365c4.203,2.427,8.09,0.039,10.078-3.404
				c1.983-3.436,2.104-7.989-2.1-10.416l-9.292-5.365C121.096,99.021,119.939,98.754,118.906,98.754z"/>
		</g>
	</g>
	<g>
		<g>
			<path class="st3" d="M84.774,98.786l9.293,5.365c10.411,6.011,20.412-11.26,9.979-17.284l-9.293-5.365
				C84.341,75.492,74.341,92.762,84.774,98.786z"/>
		</g>
	</g>
	<g>
		<g>
			<path class="st4" d="M103.213,98.508l0.519-0.898c1.657-2.87,0.674-6.539-2.196-8.196l-7.734-4.465
				c-2.87-1.657-6.539-0.674-8.196,2.196l-0.519,0.898c-1.657,2.87-0.674,6.539,2.196,8.196l7.734,4.465
				C97.887,102.361,101.556,101.378,103.213,98.508z"/>
		</g>
	</g>
	<g>
		<g>
			<path class="st1" d="M98.506,107.41c-1.833,0-3.676-0.509-5.439-1.527l-9.292-5.365l0,0c-6.269-3.619-6.538-10.728-3.563-15.88
				c2.979-5.158,9.274-8.487,15.542-4.868l9.293,5.365c3.491,2.015,5.413,5.294,5.413,9.232c0,4.616-2.688,9.271-6.69,11.581
				C102.081,106.923,100.298,107.41,98.506,107.41z M85.774,97.054l9.292,5.365c2.815,1.626,5.199,0.933,6.702,0.066
				c2.762-1.595,4.69-4.932,4.69-8.117c0-1.732-0.592-4.14-3.413-5.769l-9.293-5.365c-4.204-2.427-8.09-0.039-10.078,3.404
				C81.691,90.074,81.571,94.627,85.774,97.054L85.774,97.054z"/>
		</g>
	</g>
	<g>
		<g>
			<polygon class="st3" points="109.704,99.332 113.797,101.695 112.234,104.402 110.096,104.917 107.384,103.351 104.672,101.786 
				104.049,99.676 105.611,96.969 			"/>
		</g>
	</g>
	<g>
		<g>
			<path class="st1" d="M110.096,106.917c-0.348,0-0.693-0.091-1-0.268l-5.424-3.131c-0.444-0.256-0.772-0.673-0.918-1.165
				l-0.624-2.11c-0.155-0.526-0.088-1.092,0.186-1.567l1.563-2.707c0.552-0.957,1.775-1.285,2.732-0.732l8.186,4.726
				c0.459,0.265,0.794,0.702,0.932,1.214c0.138,0.512,0.065,1.059-0.2,1.518l-1.563,2.707c-0.274,0.475-0.731,0.816-1.264,0.944
				l-2.139,0.515C110.41,106.898,110.252,106.917,110.096,106.917z M106.363,100.453l4.041,2.333l0.528-0.127l0.133-0.231
				l-4.722-2.726l-0.134,0.231L106.363,100.453z"/>
		</g>
	</g>
</g>
</svg>
