<?xml version="1.0" encoding="iso-8859-1"?>
<!-- Generator: Adobe Illustrator 19.0.0, SVG Export Plug-In . SVG Version: 6.00 Build 0)  -->
<svg version="1.1" id="Layer_1" xmlns="http://www.w3.org/2000/svg" xmlns:xlink="http://www.w3.org/1999/xlink" x="0px" y="0px"
	 viewBox="0 0 512 512" style="enable-background:new 0 0 512 512;" xml:space="preserve">
<path style="fill:#666666;" d="M342.132,318.025l-2.478-88.008H98.951l-2.478,88.008l-4.051,143.804
	c-0.256,9.081,7.036,16.582,16.122,16.582h221.519c9.085,0,16.377-7.5,16.122-16.582L342.132,318.025z"/>
<path style="fill:#4D4D4D;" d="M159.496,230.017H98.951l-2.478,88.008l-4.051,143.804c-0.256,9.081,7.036,16.582,16.122,16.582
	h43.957l4.519-160.386L159.496,230.017z"/>
<polygon style="fill:#FCD559;" points="238.213,103.011 246.151,137.422 164.209,156.316 156.271,121.904 "/>
<polygon style="fill:#E6E6E6;" points="495.51,43.662 503.449,78.085 246.151,137.422 238.213,103.011 "/>
<polygon style="fill:#F7729B;" points="342.132,318.025 96.473,318.025 98.951,230.017 339.654,230.017 "/>
<polygon style="fill:#E55C8D;" points="159.5,230.017 157.022,318.025 96.473,318.025 98.951,230.017 "/>
<rect x="224.523" y="111.803" transform="matrix(-0.2248 -0.9744 0.9744 -0.2248 179.4873 383.2191)" style="fill:#E2B844;" width="35.315" height="16.819"/>
<path style="fill:#666666;" d="M424.87,228.368c3.655,3.655,5.483,8.443,5.483,13.242c0,4.788-1.828,9.576-5.483,13.242
	c-7.311,7.311-19.174,7.311-26.484,0l-4.9-4.911c-11.695-11.684-27.538-18.243-44.066-18.243h-9.766H98.951h-9.766
	c-16.527,0-32.382,6.559-44.066,18.243l-4.9,4.911c-3.655,3.655-8.443,5.483-13.242,5.483s-9.587-1.828-13.242-5.483
	c-7.311-7.322-7.311-19.174,0-26.484l4.9-4.911c18.849-18.837,43.898-29.22,70.55-29.22h100.712h58.81H349.42
	c26.653,0,51.702,10.383,70.539,29.22L424.87,228.368z"/>
<path d="M426.046,216.163c-20.432-20.432-47.594-31.683-76.485-31.683H89.326c-28.886,0-56.052,11.251-76.503,31.69l-4.893,4.904
	c-10.572,10.572-10.575,27.786,0,38.376c5.124,5.124,11.938,7.946,19.188,7.946s14.065-2.822,19.195-7.953l4.893-4.904
	c10.176-10.175,23.714-15.78,38.12-15.78h9.766h232.526l2.006,71.189h-36.146c-4.645,0-8.41,3.765-8.41,8.41s3.764,8.41,8.41,8.41
	h36.619l4.044,143.567H100.745l4.044-143.567h165.779c4.645,0,8.41-3.765,8.41-8.41s-3.764-8.41-8.41-8.41H105.264l1.507-53.498
	c0.131-4.642-3.528-8.512-8.17-8.643c-4.642-0.145-8.513,3.526-8.643,8.17l-6.268,222.529c-0.064,2.271,0.794,4.47,2.377,6.099
	c1.583,1.629,3.758,2.548,6.029,2.548h254.696c2.271,0,4.447-0.918,6.03-2.548c1.583-1.629,2.44-3.829,2.376-6.099l-6.753-239.748
	h1.117c14.396,0,27.935,5.605,38.112,15.773l4.907,4.918c5.124,5.124,11.938,7.946,19.188,7.946s14.065-2.822,19.198-7.955
	c5.117-5.133,7.936-11.945,7.936-19.179c0-7.25-2.822-14.064-7.945-19.188L426.046,216.163z M419.066,247.558
	c-1.948,1.948-4.54,3.021-7.297,3.021s-5.348-1.073-7.288-3.014l-4.91-4.92c-13.363-13.351-31.124-20.703-50.01-20.703h-9.766
	H99.093h-9.766c-18.898,0-36.66,7.353-50.019,20.713l-4.894,4.906c-1.947,1.947-4.538,3.02-7.295,3.02s-5.348-1.073-7.292-3.015
	c-4.022-4.029-4.024-10.576,0.002-14.602l4.891-4.902c17.265-17.256,40.21-26.759,64.605-26.759H349.56
	c24.398,0,47.338,9.503,64.592,26.757l4.911,4.911c1.948,1.948,3.02,4.538,3.02,7.296
	C422.085,243.014,421.01,245.608,419.066,247.558z"/>
<path d="M511.785,76.529l-7.939-34.423c-0.501-2.173-1.846-4.059-3.737-5.241c-1.89-1.183-4.177-1.565-6.348-1.064L236.465,95.15
	l-81.942,18.893c-2.173,0.501-4.059,1.846-5.241,3.737c-1.183,1.892-1.565,4.174-1.064,6.349l7.939,34.412
	c0.897,3.89,4.358,6.521,8.186,6.52c0.626,0,1.261-0.071,1.897-0.216l243.623-56.18c4.525-1.044,7.349-5.559,6.305-10.085
	c-1.046-4.527-5.563-7.347-10.085-6.305l-153.487,35.394l-4.158-18.02l240.908-55.568l4.16,18.033l-54.584,12.588
	c-4.525,1.044-7.349,5.559-6.305,10.085c1.045,4.525,5.555,7.351,10.085,6.305l62.778-14.478c2.173-0.501,4.058-1.846,5.241-3.736
	C511.903,80.986,512.285,78.703,511.785,76.529z M170.654,146.566l-4.158-18.023l65.554-15.115l4.158,18.021L170.654,146.566z"/>
<path d="M170.327,83.7c4.644,0,8.41-3.765,8.41-8.41V33.254c0-4.644-3.765-8.41-8.41-8.41c-4.644,0-8.41,3.765-8.41,8.41v42.036
	C161.917,79.935,165.682,83.7,170.327,83.7z"/>
<path d="M67.742,144.249h42.048c4.644,0,8.41-3.765,8.41-8.41s-3.765-8.41-8.41-8.41H67.742c-4.644,0-8.41,3.765-8.41,8.41
	S63.098,144.249,67.742,144.249z"/>
<path d="M121.57,98.974c1.642,1.643,3.794,2.465,5.947,2.465c2.152,0,4.303-0.821,5.945-2.462c3.285-3.283,3.286-8.608,0.002-11.892
	l-29.725-29.736c-3.283-3.285-8.608-3.286-11.892-0.002c-3.285,3.283-3.286,8.608-0.002,11.892L121.57,98.974z"/>
<g>
</g>
<g>
</g>
<g>
</g>
<g>
</g>
<g>
</g>
<g>
</g>
<g>
</g>
<g>
</g>
<g>
</g>
<g>
</g>
<g>
</g>
<g>
</g>
<g>
</g>
<g>
</g>
<g>
</g>
</svg>
